<?xml version="1.0" encoding="utf-8"?>
<!-- Generator: Adobe Illustrator 21.1.0, SVG Export Plug-In . SVG Version: 6.00 Build 0)  -->
<svg version="1.1" id="Layer_1" xmlns="http://www.w3.org/2000/svg" xmlns:xlink="http://www.w3.org/1999/xlink" x="0px" y="0px"
	 viewBox="0 0 110 31" style="enable-background:new 0 0 110 31;" xml:space="preserve">
<style type="text/css">
	.st0{fill:#28AADC;}
</style>
<title>logo</title>
<path class="st0" d="M83.1,5.1c1.4,0.1,2.7-0.9,2.8-2.3c0-0.1,0-0.1,0-0.2C85.8,1,84.4-0.2,82.8,0c-1.3,0.1-2.4,1.2-2.5,2.5
	c0,1.4,1.2,2.6,2.7,2.6C83,5.1,83.1,5.1,83.1,5.1"/>
<path class="st0" d="M80.3,5.5V24h-4.9V5.3c0-1-0.8-1.7-2.1-1.2V0.7C74.1,0.3,75,0,75.8,0C79.2,0,80.3,2.2,80.3,5.5"/>
<path class="st0" d="M110,15c0-4.5-2.3-7.9-7-7.9c-2.5,0-4.8,1.3-6.2,3.3V7.5h-3v-1c0-1.7,0.7-2.4,1.9-2.4c0.6,0,1.1,0.1,1.7,0.3
	l0.9-3.6c-1.1-0.4-2.2-0.6-3.3-0.6c-4.4,0-6,2.9-6,6.3v0.9h-7.1V24h4.9V11.3H89V24h4.9V11.3h2.4c-0.7,1.4-1,2.9-1,4.4
	c0,5.5,3.6,8.6,8.3,8.6c2.1,0,4.1-0.7,5.8-1.9l-1.6-3c-1.1,0.7-2.3,1.1-3.6,1.1c-2.1,0.2-4-1.4-4.3-3.5h9.9
	C110,16.4,110,15.7,110,15 M99.9,14c0.3-2.1,1.7-3.1,3.2-3.1c2,0,2.8,1.3,2.8,3.1H99.9z"/>
<path class="st0" d="M66.5,19.1V0.7h4.9v18.6c0,1,0.8,1.7,2.1,1.2V24c-0.8,0.4-1.6,0.7-2.5,0.7C67.6,24.7,66.5,22.5,66.5,19.1"/>
<path class="st0" d="M19.4,5.1c1.4,0.1,2.7-0.9,2.8-2.3c0-0.1,0-0.1,0-0.2C22.2,1.1,21,0,19.6,0c-0.1,0-0.2,0-0.2,0
	c-1.4-0.1-2.7,0.9-2.8,2.3c0,0.1,0,0.1,0,0.2c0,1.4,1.2,2.6,2.7,2.6C19.3,5.1,19.3,5.1,19.4,5.1"/>
<path class="st0" d="M38.8,5.1c1.4,0.1,2.7-0.9,2.8-2.3c0-0.1,0-0.1,0-0.2c0-1.4-1.2-2.5-2.6-2.5c-0.1,0-0.2,0-0.2,0
	c-1.4-0.1-2.7,0.9-2.8,2.3c0,0.1,0,0.1,0,0.2c0,1.4,1.2,2.6,2.7,2.6C38.7,5.1,38.8,5.1,38.8,5.1"/>
<path class="st0" d="M58.9,7.1c-2.3,0-4.6,0.7-6.6,1.9V7.5h-4V3.1h-4l-0.6,4.4H32.5c-0.8,0-1.5-0.1-2.3-0.3
	c-0.5-0.1-1.1-0.1-1.6-0.1c-3.4,0-6.5,1.8-6.8,5.4v-5H17v2.6C16,4.6,12,2,6.2,2H0v22h6.5C12,24,16,21.4,17,15.8V24h4.9V13.5
	c0.1,1.6,0.9,3,2.2,3.9v0.1c-1.1,0.7-1.8,1.8-1.9,3.1c0,1.1,0.6,2.2,1.5,2.8v0.1c-1.5,0.9-2.4,2-2.4,3.3c0,2.9,3.1,4.2,6.9,4.2
	c5.6,0,9.2-2.5,9.2-5.9c0-0.4,0-0.7-0.1-1.1h3.9V11.3h2.2V18c0,3.8,1.6,6.4,5.7,6.4c1.2,0,2.5-0.2,3.7-0.6l-0.2-0.9
	c0.9,1,2.3,1.6,3.7,1.5c1.8-0.1,3.5-0.8,4.7-2.1h0.1l0.4,1.7h4v-9.4C65.5,9.6,63.2,7.1,58.9,7.1 M5.9,20H5V6.1h0.9
	c3.7,0,6.2,1.6,6.2,6.9S9.6,20,5.9,20 M28.6,10.4c1.3,0,2.3,0.9,2.3,2.7s-1,2.8-2.3,2.8s-2.3-0.9-2.3-2.8S27.4,10.4,28.6,10.4
	 M29,27.9c-2.2,0-3.7-0.7-3.7-1.9c0-0.7,0.4-1.3,0.9-1.6c0.8,0.2,1.5,0.2,2.3,0.2h1.7c1.6,0,2.5,0.3,2.5,1.3S31.2,27.9,29,27.9
	 M36.4,22.3c-1-1-2.8-1.4-5.2-1.4h-2.7c-1.8,0-2.5-0.4-2.5-1.2c0-0.5,0.2-1,0.6-1.2c0.6,0.2,1.3,0.3,2,0.3c3.6,0,6.5-1.8,6.5-5.6
	c0-0.8-0.2-1.5-0.5-2.2h1.8L36.4,22.3z M60.6,19.2C60,20,59,20.5,57.9,20.6c-1.2,0-1.9-0.5-1.9-1.6c0-1.3,1.1-2.3,4.6-2.7L60.6,19.2
	z M51.3,19.4c0,0.3,0,0.7,0.1,1c-0.3,0.1-0.6,0.1-1,0.1c-1.3,0-2.1-0.8-2.1-2.6v-6.6h4V10l1.4,2.5c1.3-0.9,2.8-1.4,4.3-1.5
	c1.2-0.2,2.4,0.7,2.6,1.9c0,0.1,0,0.3,0,0.4C54.1,14.1,51.3,16,51.3,19.4"/>
</svg>
