<?xml version="1.0" encoding="UTF-8"?>
<!DOCTYPE svg PUBLIC "-//W3C//DTD SVG 1.1//EN" "http://www.w3.org/Graphics/SVG/1.1/DTD/svg11.dtd">
<!-- Creator: CorelDRAW 2019 (64-Bit) -->
<svg xmlns="http://www.w3.org/2000/svg" xml:space="preserve" width="221.18mm" height="165.442mm" version="1.1" style="shape-rendering:geometricPrecision; text-rendering:geometricPrecision; image-rendering:optimizeQuality; fill-rule:evenodd; clip-rule:evenodd"
viewBox="0 0 22118.04 16544.21"
 xmlns:xlink="http://www.w3.org/1999/xlink"
 xmlns:xodm="http://www.corel.com/coreldraw/odm/2003">
 <defs>
  <style type="text/css">
   <![CDATA[
    .fil3 {fill:#FEFEFE}
    .fil0 {fill:#2B2A29}
    .fil1 {fill:#CC3733}
    .fil2 {fill:#902724}
   ]]>
  </style>
 </defs>
 <g id="Слой_x0020_1">
  <metadata id="CorelCorpID_0Corel-Layer"/>
  <path class="fil0" d="M1315.99 13002.86l-80.84 0c-17.3,0 -26.04,-7.76 -26.04,-23.48l0 -1683.27 -1076.16 0 0 1683.27c0,15.72 -8.73,23.48 -26.08,23.48l-80.79 0c-17.34,0 -26.08,-7.76 -26.08,-23.31l0 -1688.6c0,-36.52 8.31,-64.3 24.8,-83.39 16.45,-19.22 44.7,-28.77 84.63,-28.77l1123.16 0c39.93,0 68.14,9.55 84.72,28.77 16.45,19.09 24.71,46.87 24.71,83.39l0 1688.6c0,15.55 -8.73,23.31 -26.03,23.31z"/>
  <path class="fil0" d="M2689.21 12313.76c0,-114.5 -11.72,-209.79 -35.07,-286.11 -23.44,-76.19 -56.3,-136.83 -98.74,-181.91 -42.44,-45.09 -92.17,-77.22 -149.36,-96.31 -57.19,-19.09 -119.53,-28.59 -187.07,-28.59 -50.24,0 -112.16,5.28 -185.76,15.68 -73.55,10.44 -140.7,27.61 -201.34,51.99l0 1068.61c83.18,31.24 157.2,50.8 222.1,58.55 64.98,7.8 116.5,11.76 154.6,11.76 71.08,0 136.02,-12.18 194.87,-36.43 58.89,-24.33 109.52,-61.66 151.96,-111.86 42.44,-50.2 75.3,-113.91 98.74,-191.12 23.35,-77.09 35.07,-168.54 35.07,-274.26zm130.31 -1.32c0,104.23 -12.1,200.54 -36.44,289.22 -24.29,88.5 -61.06,164.99 -110.45,229.3 -49.39,64.3 -111.73,114.67 -187.12,151.06 -75.38,36.56 -163.25,54.76 -263.73,54.76 -57.27,0 -119.66,-4.81 -187.16,-14.36 -67.63,-9.55 -135.13,-26.42 -202.75,-50.8l0 547.29c0,13.81 -7.93,20.84 -23.95,20.84l-77.13 0c-16.03,0 -23.99,-7.03 -23.99,-20.84l0 -1787.68c0,-17.3 6.94,-28.63 20.83,-33.75 81.69,-33.02 166.79,-55.65 255.39,-67.84 88.59,-12.18 173.73,-18.19 255.34,-18.19 198.06,0 344.44,62.55 439.13,187.62 94.68,125.07 142.03,296.08 142.03,513.37z"/>
  <path class="fil0" d="M3981.63 12270.76l-398.65 0c-31.28,0 -69.93,3.37 -115.99,10.27 -46.03,6.9 -91.15,22.63 -135.51,46.83 -44.24,24.21 -82.04,58.73 -113.31,103.81 -31.28,44.91 -46.92,106.41 -46.92,184.22 0,62.26 12.57,113.35 37.8,153.15 25.18,39.76 57.7,71.34 97.71,94.65 39.93,23.35 84.72,39.5 134.19,48.15 49.56,8.52 97.71,12.95 144.59,12.95 17.43,0 41.72,-0.89 72.95,-2.64 31.28,-1.62 65.58,-5.16 103,-10.31 37.28,-5.24 75.55,-11.72 114.67,-19.48 39.03,-7.79 74.19,-18.66 105.47,-32.47l0 -589.13zm125.07 633.15c0,22.63 -9.55,38.18 -28.64,46.83 -78.15,29.66 -159.41,50.8 -243.62,63.88 -84.33,13.08 -165.51,19.52 -243.66,19.52 -109.48,0 -199.3,-12.15 -269.7,-36.39 -70.31,-24.38 -125.97,-56.51 -166.79,-96.48 -40.82,-39.93 -69.08,-84.67 -84.72,-134.15 -15.64,-49.47 -23.39,-100.27 -23.39,-152.38 0,-74.75 13,-140.37 39.03,-196.88 26.08,-56.37 62.99,-103.8 110.8,-141.94 47.77,-38.18 104.66,-66.82 170.66,-86.04 66.06,-19.09 139.01,-28.63 218.87,-28.63l398.73 0 0 -99.55c0,-50.62 -4.81,-97.03 -14.32,-139 -9.63,-41.85 -27.82,-78.12 -54.76,-108.8 -26.93,-30.55 -65.11,-54.16 -114.63,-70.78 -49.47,-16.57 -113.35,-24.8 -191.54,-24.8 -53.87,0 -114.21,5.16 -181.07,15.56 -66.94,10.44 -129.93,26.12 -188.95,47 -15.63,5.11 -26.03,0.85 -31.27,-13.08l-15.64 -59.75c-5.2,-13.51 -0.86,-22.92 12.99,-28.04 53.91,-22.03 119.02,-39.33 195.47,-52.11 76.45,-12.66 151.15,-19.1 224.11,-19.1 321.39,0 482.04,138.16 482.04,414.29l0 880.82z"/>
  <path class="fil0" d="M5414.85 12601.66c0,-85.15 -28.98,-152.52 -87.06,-201.99 -58,-49.48 -146.72,-74.32 -266.25,-74.32l-490.99 0 0 575.92 496.23 0c76.15,0 137.26,-9.97 183.11,-29.91 45.89,-19.99 80.97,-45.22 105.21,-75.6 24.29,-30.43 40.27,-63.03 48.07,-97.63 7.8,-34.81 11.68,-66.94 11.68,-96.47zm-844.3 -380.54l490.95 0c27.65,0 58.33,-3.8 92.17,-11.72 33.71,-7.8 65.33,-21.01 94.77,-39.33 29.45,-18.37 54.12,-43.17 73.98,-74.62 19.98,-31.53 29.87,-70.74 29.87,-118.04 0,-64.56 -22.07,-119.49 -66.18,-165 -44.15,-45.34 -109.52,-68.09 -196.06,-68.09l-519.5 0 0 476.8zm693.15 47c53.9,12.19 98.56,30.81 134.27,55.91 35.54,25.27 64.05,53.9 85.44,86.04 21.35,32.17 36.18,66.09 44.23,101.59 8.19,35.66 12.28,70.05 12.28,103.08 0,116.25 -40.36,210.51 -121.11,282.61 -80.84,72.19 -189.84,108.2 -327.1,108.2l-555 0c-60.85,0 -91.23,-26 -91.23,-78.12l0 -1209.11c0,-24.37 6.09,-44.32 18.19,-60.04 12.19,-15.56 36.44,-23.35 72.83,-23.35l540.59 0c116.17,0 211.88,27.74 287.26,83.39 75.38,55.48 113.01,139.77 113.01,252.66 0,26.12 -3.88,53.86 -11.63,83.39 -7.84,29.66 -20.07,57.4 -36.52,83.35 -16.58,26.17 -38.23,50.07 -65.16,71.68 -26.93,21.86 -59.53,38.73 -97.71,50.92l-2.64 7.8z"/>
  <path class="fil0" d="M6785.42 11812.11c-19.05,29.53 -38.14,57.7 -57.31,84.59 -19.09,27.02 -38.18,55.19 -57.32,84.72 -39.93,59.14 -88.59,129.92 -145.95,212.42 -57.31,82.5 -116.84,168.54 -178.42,257.94 -61.75,89.53 -122.51,178.09 -182.43,265.87 -59.96,87.65 -112.5,166.32 -157.67,235.78 -13.93,20.84 -26.04,34.77 -36.48,41.67 -10.39,6.91 -25.18,10.45 -44.31,10.45l-31.28 0c-45.13,0 -67.76,-22.63 -67.76,-67.72l0 -1274.27c0,-17.34 8.87,-26.12 26.64,-26.12l71.88 0c17.77,0 26.55,8.78 26.55,26.12l0 1172.55c1.79,0 3.11,0.43 3.97,1.33 0.81,0.89 2.13,1.32 3.92,1.32 25.95,-38.19 51.94,-76.49 77.94,-114.68 25.99,-38.18 51.94,-75.59 77.94,-111.98 38.18,-57.4 84.07,-125.54 137.72,-204.68 53.74,-78.96 109.14,-161.03 166.32,-246.17 57.19,-85.15 113.91,-168.97 170.24,-251.51 56.3,-82.5 107.01,-155.88 152.09,-220.18 13.81,-19.09 24.67,-32.6 32.43,-40.4 7.8,-7.76 23.86,-11.72 48.07,-11.72l36.43 0c22.46,0 38.52,6.61 48.07,19.52 9.46,13.04 14.23,30.08 14.23,50.92l0 1274.14c0,10.44 -1.66,17.05 -5.2,19.52 -3.45,2.64 -11.33,4.01 -23.43,4.01l-70.4 0c-10.4,0 -17.3,-1.37 -20.84,-4.01 -3.45,-2.47 -5.2,-9.08 -5.2,-19.52l0 -1169.91 -10.44 0z"/>
  <path class="fil0" d="M7481.21 11726.55c1.79,-59.32 32.18,-89.11 91.28,-89.11l695.5 0c36.56,0 60.47,7.63 71.84,22.88 11.34,15.26 16.96,37.46 16.96,66.23l0 1253c0,10.4 -2.21,16.88 -6.69,19.52 -4.39,2.47 -12.82,3.79 -25.18,3.79l-63.92 0c-10.66,0 -18.2,-1.32 -22.59,-3.79 -4.47,-2.64 -6.69,-9.12 -6.69,-19.52l0 -1232.59 -641.03 0 -15.64 239.74c-10.44,168.49 -21.73,311.33 -33.84,428.65 -12.18,117.14 -31.74,215.84 -58.67,295.69 -26.94,79.99 -65.12,145.06 -114.63,195.56 -49.48,50.32 -117.7,92.04 -204.59,124.9 -8.65,3.53 -15.64,5.28 -20.84,5.28 -5.2,0 -9.54,-4.39 -13,-13.04l-20.83 -57.27c-3.54,-8.65 -3.93,-15.26 -1.33,-19.52 2.65,-4.39 9.08,-9.12 19.52,-14.4 67.76,-27.74 121.19,-63.41 160.31,-106.88 39.04,-43.29 69.89,-99.37 92.52,-168.06 22.5,-68.57 39.03,-152.39 49.47,-251.34 10.4,-99.12 20.8,-218.9 31.24,-359.7l20.83 -320.02z"/>
  <path class="fil0" d="M8818 12218.65l0 677.51 480.64 0c74.44,0 135.42,-13.09 183.06,-39.04 47.64,-25.99 84.85,-57.14 111.73,-93.41 26.85,-36.39 45.05,-74.4 54.59,-114.2 9.55,-39.76 14.24,-74.45 14.24,-103.93 0,-41.42 -7.33,-81.61 -22.08,-120.69 -14.74,-38.9 -36.77,-73.97 -66.22,-105.08 -29.45,-31.15 -67.54,-55.82 -114.29,-74.02 -46.75,-18.03 -102.19,-27.14 -166.23,-27.14l-475.44 0zm467.77 -109.52c105.72,0 191.03,16.15 255.97,48.45 64.99,32.13 115.23,71.34 150.69,117.44 35.54,46.24 59.4,94.52 71.5,145.19 12.19,50.49 18.2,94.09 18.2,130.65 0,59.15 -10.87,116.29 -32.52,171.18 -21.77,54.76 -53.05,103.21 -93.79,145.05 -40.91,41.85 -89.57,75.3 -145.91,100.57 -56.55,25.23 -119.53,37.89 -188.99,37.89l-534.2 0c-34.73,0 -59.02,-7.8 -72.95,-23.53 -13.9,-15.55 -20.88,-37.28 -20.88,-65.03l0 -1253.43c0,-17.34 8.01,-26.12 24.03,-26.12l71.85 0c19.47,0 29.23,8.65 29.23,26l0 445.69 467.77 0z"/>
  <path class="fil0" d="M10177.58 13005.55l-69.16 0c-17.77,0 -26.64,-8.7 -26.64,-26l0 -1315.99c0,-17.34 8.87,-26.12 26.64,-26.12l71.8 0c17.77,0 26.64,8.78 26.64,26.12l0 555.09 820.82 0 0 -555.09c0,-17.34 9.5,-26.12 28.67,-26.12l65.2 0c17.3,0 25.95,8.78 25.95,26.12l0 1315.99c0,17.3 -9.54,26 -28.59,26l-62.56 0c-19.17,0 -28.67,-8.7 -28.67,-26l0 -651.52 -820.82 0 0 651.52c0,17.3 -9.76,26 -29.28,26z"/>
  <path class="fil0" d="M12768.44 11666.2c0,-19.21 8.53,-28.76 26,-28.76l67.67 0c17.3,0 26.12,9.55 26.12,28.76l0 1315.82c0,10.44 -2.22,17.05 -6.48,19.52 -4.39,2.64 -10.86,4.01 -19.64,4.01l-67.67 0c-10.44,0 -17.47,-1.37 -20.88,-4.01 -3.5,-2.47 -5.12,-9.08 -5.12,-19.52l0 -1315.82zm-1138.93 552.45l0 677.51 480.64 0c74.58,0 135.51,-13.09 183.2,-39.04 47.6,-25.99 84.88,-57.14 111.6,-93.41 27.02,-36.39 45.21,-74.4 54.59,-114.2 9.72,-39.76 14.4,-74.45 14.4,-103.93 0,-41.42 -7.37,-81.61 -22.16,-120.69 -14.83,-38.9 -36.86,-73.97 -66.22,-105.08 -29.36,-31.15 -67.54,-55.82 -114.2,-74.02 -46.83,-18.03 -102.19,-27.14 -166.32,-27.14l-475.53 0zm467.86 -109.52c105.72,0 190.99,16.15 255.89,48.45 65.03,32.13 115.4,71.34 150.77,117.44 35.54,46.24 59.49,94.52 71.5,145.19 12.19,50.49 18.2,94.09 18.2,130.65 0,59.15 -10.87,116.29 -32.6,171.18 -21.73,54.76 -52.97,103.21 -93.66,145.05 -40.96,41.85 -89.54,75.3 -145.91,100.57 -56.68,25.23 -119.49,37.89 -189.08,37.89l-534.12 0c-34.77,0 -58.97,-7.8 -73.08,-23.53 -13.8,-15.55 -20.88,-37.28 -20.88,-65.03l0 -1253.43c0,-17.34 8.1,-26.12 24.12,-26.12l71.89 0c19.39,0 29.1,8.65 29.1,26l0 445.69 467.86 0z"/>
  <path class="fil0" d="M13771.56 11442.02c-78.23,0 -149.31,-22.16 -213.57,-66.48 -64.31,-44.19 -117.32,-102.91 -159.04,-175.91 -8.61,-13.76 -6.86,-25.1 5.16,-33.75l28.76 -23.48c8.7,-6.9 15.6,-8.69 20.84,-5.28 5.16,3.49 10.31,9.67 15.6,18.36 43.42,60.77 92.89,105.39 148.55,134.15 55.48,28.64 108.62,43.04 158.86,43.04 38.31,0 83.4,-12.66 135.64,-37.88 51.94,-25.1 105.98,-73.43 161.46,-144.63 8.82,-8.65 14.7,-14.36 18.24,-16.88 3.54,-2.64 9.67,-1.32 18.2,3.84l31.4 20.83c10.31,7.04 13.81,15.26 10.27,24.81 -3.36,9.54 -8.52,18.66 -15.55,27.31 -53.74,83.4 -112.46,143.01 -175.87,178.51 -63.41,35.67 -126.39,53.44 -188.95,53.44zm416.93 370.09c-19.04,29.53 -38.18,57.7 -57.4,84.59 -19.09,27.02 -38.18,55.19 -57.27,84.72 -39.88,59.14 -88.63,129.92 -145.91,212.42 -57.23,82.5 -116.84,168.54 -178.5,257.94 -61.67,89.53 -122.43,178.09 -182.35,265.87 -59.91,87.65 -112.45,166.32 -157.67,235.78 -13.93,20.84 -26.12,34.77 -36.43,41.67 -10.53,6.91 -25.23,10.45 -44.32,10.45l-31.41 0c-45.08,0 -67.67,-22.63 -67.67,-67.72l0 -1274.27c0,-17.34 8.95,-26.12 26.55,-26.12l71.98 0c17.72,0 26.54,8.78 26.54,26.12l0 1172.55c1.79,0 3.12,0.43 3.97,1.33 0.89,0.89 2.04,1.32 3.83,1.32 26.12,-38.19 51.95,-76.49 78.11,-114.68 25.83,-38.18 51.95,-75.59 77.77,-111.98 38.18,-57.4 84.12,-125.54 137.73,-204.68 53.73,-78.96 109.22,-161.03 166.49,-246.17 57.1,-85.15 113.91,-168.97 170.11,-251.51 56.25,-82.5 107.05,-155.88 152.09,-220.18 13.81,-19.09 24.67,-32.6 32.47,-40.4 7.8,-7.76 23.78,-11.72 48.15,-11.72l36.4 0c22.33,0 38.48,6.61 48.02,19.52 9.55,13.04 14.23,30.08 14.23,50.92l0 1274.14c0,10.44 -1.74,17.05 -5.28,19.52 -3.37,2.64 -11.16,4.01 -23.35,4.01l-70.31 0c-10.57,0 -17.3,-1.37 -20.84,-4.01 -3.54,-2.47 -5.29,-9.08 -5.29,-19.52l0 -1169.91 -10.44 0z"/>
  <path class="fil0" d="M15882.17 12924.79c66.13,0 128.22,-8.22 186.56,-24.84 57.99,-16.41 110.62,-36.82 157.67,-61.19 13.68,-8.65 24.97,-5.16 33.66,10.44l26.17 54.71c8.73,12.23 6,22.63 -7.97,31.45 -64.31,35.67 -130.19,61.07 -197.81,76.19 -67.8,15.13 -138.33,22.59 -211.07,22.59 -399.71,0 -599.53,-231.82 -599.53,-695.71 0,-116.42 14.75,-219.76 43.89,-310.05 29.49,-90.3 70.53,-166.79 123.88,-229.31 53.23,-62.55 117.27,-109.81 191.85,-142.11 74.83,-32 159.03,-48.16 252.7,-48.16 130.48,0 255.55,30.39 375.33,91.15 12.19,8.83 14.75,19.27 7.85,31.28l-28.73 54.76c-5.11,15.73 -16.53,19.09 -33.83,10.44 -46.88,-22.63 -96.35,-41.25 -148.51,-56.08 -52.16,-14.7 -110.33,-22.03 -174.67,-22.03 -86.76,0 -161.04,16.88 -222.83,50.63 -61.62,33.79 -111.99,79.3 -150.89,136.53 -39.08,57.27 -67.5,122.6 -84.97,196.32 -17.26,73.68 -26,150.3 -26,230.03 0,85.01 8.44,163.85 24.8,236.67 16.54,72.79 43.47,135.64 80.76,188.48 37.28,53.01 87.18,94.09 149.7,123.62 62.55,29.49 139.98,44.19 231.99,44.19z"/>
  <path class="fil0" d="M17497.9 12601.66c0,-85.15 -29.02,-152.52 -87.19,-201.99 -57.87,-49.48 -146.72,-74.32 -266.25,-74.32l-490.95 0 0 575.92 496.23 0c76.24,0 137.26,-9.97 183.24,-29.91 45.85,-19.99 80.88,-45.22 105.09,-75.6 24.37,-30.43 40.31,-63.03 48.11,-97.63 7.67,-34.81 11.72,-66.94 11.72,-96.47zm-844.39 -380.54l490.99 0c27.66,0 58.47,-3.8 92.13,-11.72 33.84,-7.8 65.37,-21.01 94.86,-39.33 29.32,-18.37 53.95,-43.17 73.98,-74.62 19.98,-31.53 29.74,-70.74 29.74,-118.04 0,-64.56 -22.07,-119.49 -66.13,-165 -44.07,-45.34 -109.44,-68.09 -196.2,-68.09l-519.37 0 0 476.8zm693.32 47c53.65,12.19 98.44,30.81 134.11,55.91 35.62,25.27 64,53.9 85.52,86.04 21.35,32.17 36.09,66.09 44.19,101.59 8.14,35.66 12.32,70.05 12.32,103.08 0,116.25 -40.44,210.51 -121.15,282.61 -80.71,72.19 -189.89,108.2 -327.15,108.2l-554.82 0c-61.07,0 -91.41,-26 -91.41,-78.12l0 -1209.11c0,-24.37 6.14,-44.32 18.15,-60.04 12.19,-15.56 36.57,-23.35 72.92,-23.35l540.46 0c116.34,0 212.13,27.74 287.43,83.39 75.3,55.48 113.05,139.77 113.05,252.66 0,26.12 -4.05,53.86 -11.72,83.39 -7.84,29.66 -20.02,57.4 -36.56,83.35 -16.53,26.17 -38.31,50.07 -65.07,71.68 -26.93,21.86 -59.53,38.73 -97.71,50.92l-2.56 7.8z"/>
  <path class="fil0" d="M18876.31 12234.2c0,-67.37 -6.77,-132.14 -20.92,-194.36 -13.85,-62.26 -38.18,-117.14 -73.21,-164.74 -34.86,-47.56 -81.01,-85.57 -138.45,-114.04 -57.44,-28.51 -128.99,-42.74 -214.22,-42.74 -137.68,0 -243.83,46.96 -318.88,141.22 -74.99,94.26 -116.8,219.21 -125.49,374.66l891.17 0zm-442.88 -625.4c98.91,0 184.13,15.26 255.26,45.64 71.25,30.39 129.41,72.53 174.67,126.44 45.08,53.69 78.62,117.57 100.27,191.42 21.82,73.85 32.64,153.41 32.64,238.42 0,53.86 -11.42,89.53 -34.01,106.87 -22.54,17.3 -53.82,26.13 -93.66,26.13l-886.19 0c0,105.85 11.72,195.85 35.33,269.7 23.48,73.8 56.38,133.72 99.07,179.65 42.4,46.11 92.47,79.61 149.88,100.44 57.27,20.84 119.82,31.28 187.62,31.28 57.27,0 112.76,-6.6 166.71,-19.51 53.82,-13.09 101.63,-30.86 143.26,-53.48 6.91,-3.5 12.96,-5.25 18.2,-5.25 5.41,0 9.63,4.39 12.95,13.04l31.41 59.92c6.9,13.93 4.35,23.48 -7.84,28.76 -55.61,32.9 -115.14,55.49 -178.6,67.67 -63.4,12.19 -127.92,18.2 -194.06,18.2 -184.13,0 -328.33,-56.38 -432.48,-169.26 -104.19,-113.06 -156.52,-292.71 -156.52,-539.53 0,-116.25 14.15,-219.16 41.63,-308.73 27.96,-89.41 67.08,-164.58 117.57,-225.34 50.2,-60.94 110.63,-106.45 180.98,-136.84 70.36,-30.38 148.98,-45.64 235.91,-45.64z"/>
  <path class="fil0" d="M19704.46 13005.55l-69.29 0c-19.56,0 -29.32,-9.55 -29.32,-28.64l0 -1229.95 -447.99 0c-19.09,0 -28.85,-8.7 -28.85,-26.12l0 -54.64c0,-19.21 9.76,-28.76 28.85,-28.76l1042.24 0c19.09,0 28.72,9.55 28.72,28.76l0 54.64c0,17.42 -9.63,26.12 -28.72,26.12l-469.17 0 0 1229.95c0,19.09 -8.87,28.64 -26.47,28.64z"/>
  <path class="fil0" d="M21000 12275.92l0 -67.71c0,-17.48 6.94,-26.13 20.92,-26.13l1073.64 0c15.64,0 23.44,8.65 23.44,26.13l0.04 67.71c0,15.68 -7.84,23.48 -23.48,23.48l-1073.64 0c-13.98,-0.04 -20.92,-7.8 -20.92,-23.48z"/>
  <path class="fil0" d="M2199.41 15718.27c0,-67.92 -22.2,-122.51 -66.44,-164.14 -44.32,-41.81 -110.75,-62.52 -199.39,-62.52l-427.32 0 0 463.77 424.68 0c55.66,0 100.78,-7.85 135.51,-23.48 34.78,-15.64 62.13,-35.16 82.16,-58.64 19.9,-23.44 33.37,-49.01 40.36,-76.96 6.9,-27.66 10.44,-53.65 10.44,-78.03zm-693.15 -403.93l440.32 0c17.43,0 37.8,-2.98 61.28,-8.99 23.44,-6.05 44.74,-16.11 63.83,-29.91 19.14,-13.68 35.59,-32.35 49.52,-55.49 13.89,-23.31 20.84,-53.05 20.84,-89.44 0,-46.45 -16.49,-86.17 -49.52,-118.85 -32.98,-32.77 -77.3,-49.18 -132.87,-49.18l-453.4 0 0 351.86zm698.35 83.44c83.39,27.65 142.41,72.48 177.18,134.1 34.73,61.79 52.12,128.1 52.12,199.48 0,60.76 -11.72,115.48 -35.16,164.02 -23.48,48.7 -55.18,90.8 -95.11,126.43 -40.01,35.5 -87.27,62.98 -142.03,82.07 -54.72,19.09 -114.25,28.55 -178.55,28.55l-594.12 0c-36.47,0 -63.79,-9.46 -82.07,-28.55 -18.2,-19.09 -27.36,-44.36 -27.36,-75.59l0 -1159.64c0,-32.86 9.55,-58.55 28.68,-76.79 19.09,-18.33 46.02,-27.45 80.75,-27.45l568.08 0c121.62,0 221.51,27.45 299.7,82.08 78.16,54.76 117.23,141.22 117.23,259.34 0,59.11 -15.21,113.82 -45.59,164.19 -30.39,50.33 -70.74,87.62 -121.2,111.99l-2.55 15.77z"/>
  <path class="fil0" d="M4020.83 14811.42c0,-19.09 3.54,-31.71 10.57,-37.89 6.99,-6 19.22,-9.12 36.86,-9.12l129.21 0c17.51,0 30.29,3.12 38.14,9.12 7.92,6.18 11.88,18.8 11.88,37.89l0 1276.82c0,19.09 -3.96,31.28 -11.88,36.57 -7.85,5.07 -20.63,7.62 -38.14,7.62l-129.21 0c-17.64,0 -29.87,-2.55 -36.86,-7.62 -7.03,-5.29 -10.57,-17.48 -10.57,-36.57l0 -1276.82zm-1073.6 607.11l0 529 410.2 0c58.76,0 106.87,-9.16 144.07,-27.48 37.2,-18.2 66.22,-41.21 86.98,-69.04 20.79,-27.65 34.6,-56.8 41.5,-87.31 6.95,-30.38 10.4,-57.57 10.4,-82.07 0,-34.61 -5.67,-67.67 -16.87,-98.95 -11.25,-31.24 -28.56,-58.94 -51.99,-83.27 -23.35,-24.5 -52.72,-43.89 -88.21,-58.76 -35.54,-14.75 -76.58,-22.12 -123.33,-22.12l-412.75 0zm418.34 -185.07c105.68,0 190.99,16.53 255.93,49.6 64.99,32.94 115.19,72.91 150.73,119.83 35.49,46.92 59.31,96.05 71.42,147.19 12.18,51.26 18.19,95.15 18.19,131.55 0,62.51 -11.67,121.74 -35.15,177.23 -23.44,55.61 -56,103.42 -97.72,143.39 -41.67,40.01 -90.34,71.72 -145.9,95.03 -55.66,23.44 -115.57,35.15 -179.83,35.15l-560.24 0c-48.67,0 -81.27,-13.8 -97.71,-41.63 -16.5,-27.66 -24.81,-58.93 -24.81,-93.79l0 -1185.59c0,-19.09 3.54,-31.71 10.57,-37.89 7.08,-6 18.45,-9.12 34.31,-9.12l131.8 0c19.3,0 32.47,3.12 39.5,9.12 7.03,6.18 10.57,18.8 10.57,37.89l0 422.04 418.34 0z"/>
  <path class="fil0" d="M4859.89 15005.48c-29.57,28.51 -44.32,73.17 -44.32,133.89l0 946.32c0,19.09 -3.45,31.74 -10.44,37.75 -6.86,6.01 -19.94,8.99 -39.03,8.99l-125.07 0c-17.43,0 -30.38,-2.98 -39.12,-8.99 -8.65,-6.01 -13,-18.66 -13,-37.75l0 -909.5c0,-53.82 6.1,-105.98 18.2,-156.31 12.19,-50.37 33.45,-94.26 63.88,-131.72 30.38,-37.28 72.06,-67.2 125.07,-89.82 53.01,-22.59 121.19,-33.93 204.58,-33.93l542 0c19.1,0 31.28,4.56 36.48,13.21 5.2,8.83 7.8,21.14 7.8,37.04l0 100.39c0,17.47 -2.6,29.79 -7.8,36.86 -5.2,7.04 -17.38,10.57 -36.48,10.57l-539.44 0c-66.01,0 -113.78,14.36 -143.31,43z"/>
  <path class="fil0" d="M6717.84 15449.81c0,-67.8 -5.24,-133.21 -15.64,-196.79 -10.4,-63.28 -29.58,-118.93 -57.32,-166.7 -27.82,-47.82 -66.09,-86.42 -114.67,-115.91 -48.66,-29.66 -111.22,-44.36 -187.63,-44.36 -66.05,0 -123.36,13.97 -171.98,41.72 -48.67,27.74 -88.6,65.15 -119.88,112.07 -31.23,46.92 -54.75,101.46 -70.35,164.02 -15.68,62.51 -23.44,128.69 -23.44,198.11 0,78.19 6.1,149.91 18.2,214.98 12.19,65.12 33.02,120.73 62.55,166.88 29.58,45.85 68.19,82.07 115.96,108.07 47.81,26.03 108.15,39.11 181.1,39.11 72.96,0 134.24,-14.74 183.71,-44.36 49.56,-29.48 89.06,-68.69 118.55,-117.27 29.62,-48.54 50.45,-104.19 62.56,-166.7 12.18,-62.56 18.28,-126.91 18.28,-192.87zm226.66 -7.84c0,232.88 -52.42,410.88 -157.29,534.16 -104.91,123.41 -257,185.03 -456.34,185.03 -195.86,0 -344.96,-59.96 -447.19,-179.66 -102.32,-119.96 -153.49,-297.19 -153.49,-531.69 0,-114.55 15.21,-216.35 45.51,-304.9 30.3,-88.68 72.82,-163.21 127.41,-224.15 54.63,-60.76 119.23,-106.7 193.72,-137.98 74.53,-31.28 155.2,-46.96 241.88,-46.96 197.59,0 347.93,62.52 451.14,187.59 103.13,125.15 154.65,298.03 154.65,518.56z"/>
  <path class="fil0" d="M8182.25 14962.48l-508.12 0 -62.52 431.08c-13.98,93.96 -25.65,171.69 -35.2,232.58 -9.58,61.03 -19.13,111.52 -28.68,151.54 -9.54,40.14 -20.41,72.91 -32.6,98.01 -12.1,25.1 -26.03,49.3 -41.67,71.84l708.79 0 0 -985.05zm-953.73 985.05c43.42,-48.53 75.59,-105.08 96.43,-169.43 20.84,-64.3 39.08,-147.61 54.72,-250.14l96.43 -638.47c5.2,-45.05 20.84,-77.18 46.92,-96.31 26.04,-19.22 64.22,-28.77 114.63,-28.77l643.59 0c57.36,0 92.94,11.77 106.92,35.25 13.85,23.48 20.83,53.43 20.83,89.83l0 1060.77 75.52 5.12c36.47,3.45 58.63,15.17 66.51,35.15 7.76,19.99 10.79,37.76 9.08,53.52l-28.68 461.08c0,22.54 -9.54,33.96 -28.63,33.96l-143.36 0c-15.63,0 -24.28,-11.42 -26.07,-33.96l-15.6 -372.7 -985.01 0 -26.08 380.5c0,12.19 -2.98,20.28 -9.08,24.8 -6.09,4.39 -12.65,6.48 -19.56,6.48l-143.35 0c-6.9,0 -12.53,-1.66 -16.87,-5.12 -4.39,-3.62 -7.42,-12.18 -9.16,-26.16l-28.64 -466.49c-1.75,-20.71 2.56,-40.27 13,-58.47 10.44,-18.32 33.02,-29.14 67.75,-32.59l67.76 -7.85z"/>
  <path class="fil0" d="M9035.71 16123.44c-7.71,6.01 -20.11,8.99 -37.29,8.99l-126.26 0c-17.17,0 -30.09,-2.98 -38.69,-8.99 -8.57,-6.01 -12.83,-18.66 -12.83,-37.75l0 -1276.91c0,-19.1 4.22,-31.28 12.83,-36.44 8.6,-5.28 21.52,-7.93 38.69,-7.93l126.26 0c17.18,0 29.58,2.65 37.29,7.93 7.76,5.16 11.59,17.34 11.59,36.44l0 492.48 674.96 0 0 -492.48c0,-19.1 3.96,-31.28 11.8,-36.44 7.93,-5.28 20.71,-7.93 38.27,-7.93l129.16 0c19.3,0 32.09,2.65 38.18,7.93 6.18,5.16 9.25,17.34 9.25,36.44l0 1276.91c0,19.09 -3.07,31.74 -9.25,37.75 -6.09,6.01 -18.88,8.99 -38.18,8.99l-129.16 0c-17.56,0 -30.34,-2.98 -38.27,-8.99 -7.84,-6.01 -11.8,-18.66 -11.8,-37.75l0 -591.69 -674.96 0 0 591.69c0,19.09 -3.83,31.74 -11.59,37.75z"/>
  <path class="fil0" d="M11590.61 14811.42c0,-19.09 3.49,-31.71 10.57,-37.89 6.9,-6 19.22,-9.12 36.81,-9.12l129.21 0c17.64,0 30.25,3.12 38.18,9.12 7.93,6.18 11.89,18.8 11.89,37.89l0 1276.82c0,19.09 -3.96,31.28 -11.89,36.57 -7.93,5.07 -20.54,7.62 -38.18,7.62l-129.16 0c-17.64,0 -29.96,-2.55 -36.86,-7.62 -7.08,-5.29 -10.57,-17.48 -10.57,-36.57l0 -1276.82zm-1073.6 607.11l0 529 410.15 0c58.81,0 106.87,-9.16 144.12,-27.48 37.2,-18.2 66.13,-41.21 86.97,-69.04 20.84,-27.65 34.65,-56.8 41.38,-87.31 7.07,-30.38 10.57,-57.57 10.57,-82.07 0.04,-34.61 -5.71,-67.67 -17,-98.95 -11.17,-31.24 -28.47,-58.94 -51.99,-83.27 -23.18,-24.5 -52.54,-43.89 -88.13,-58.76 -35.54,-14.75 -76.57,-22.12 -123.32,-22.12l-412.75 0zm418.33 -185.07c105.68,0 190.91,16.53 255.94,49.6 65.07,32.94 115.22,72.91 150.76,119.83 35.54,46.92 59.32,96.05 71.38,147.19 12.19,51.26 18.2,95.15 18.2,131.55 0,62.51 -11.76,121.74 -35.24,177.23 -23.36,55.61 -55.95,103.42 -97.63,143.39 -41.72,40.01 -90.3,71.72 -145.91,95.03 -55.65,23.44 -115.57,35.15 -179.87,35.15l-560.2 0c-48.66,0 -81.26,-13.8 -97.71,-41.63 -16.49,-27.66 -24.8,-58.93 -24.8,-93.79l0 -1185.59c0,-19.09 3.49,-31.71 10.57,-37.89 7.03,-6 18.41,-9.12 34.26,-9.12l131.85 0c19.3,0 32.42,3.12 39.5,9.12 7.03,6.18 10.57,18.8 10.57,37.89l0 422.04 418.33 0z"/>
  <path class="fil0" d="M12718.84 14626.43c-86.8,0 -165.93,-27.01 -236.97,-80.92 -71.34,-53.69 -132.15,-118 -182.47,-192.74 -3.54,-5.29 -6.61,-12.19 -9.12,-20.84 -2.64,-8.65 3.07,-18.19 16.87,-28.64l49.65 -44.31c15.55,-8.65 25.95,-11.76 31.11,-9.12 5.28,2.51 13.93,9.12 26.12,19.51 50.37,55.66 102.91,98.95 157.71,130.23 54.59,31.28 107.13,46.96 157.63,46.96 38.18,0 82.5,-11.72 132.87,-35.2 50.37,-23.48 111.13,-73.42 182.47,-149.74 13.8,-12.19 23.35,-17.94 28.51,-17.05 5.28,0.9 12.31,3.97 20.83,9.12l52.25 41.68c13.8,13.93 19.56,25.27 16.87,33.92 -2.47,8.65 -5.71,15.72 -9.07,20.84 -72.96,99.12 -147.23,169.85 -222.7,212.42 -75.77,42.58 -146.51,63.88 -212.56,63.88zm-562.88 177.19c0,-17.47 3.54,-28.76 10.57,-33.92 7.03,-5.29 17.6,-7.76 31.7,-7.76l142.42 0c15.85,0 26.72,2.47 32.85,7.76 6.18,5.16 9.25,16.45 9.25,33.92l0 1005.76 10.44 0c41.55,-66.01 79.26,-126.43 113.05,-181.15 33.75,-54.54 72.23,-113.35 115.66,-175.86l392.3 -607.03c17.3,-29.66 33.75,-50.54 49.3,-62.56 15.6,-12.19 40.82,-18.37 75.47,-18.37l67.54 0c29.36,0 54.03,8.83 73.98,26.13 19.98,17.34 29.95,43.46 29.95,78.11l0 1227.43c0,15.64 -3.06,25.53 -9.07,30.05 -6.18,4.22 -17.05,6.3 -32.6,6.3l-143.31 0c-13.94,0 -24.38,-2.08 -31.41,-6.3 -6.73,-4.52 -10.27,-14.41 -10.27,-30.05l0 -995.49 -15.72 0c-20.84,31.24 -39.5,60.43 -55.95,87.32 -16.58,26.93 -33.16,53.99 -49.6,80.75 -16.45,27.06 -33.46,54.42 -50.8,82.07 -17.3,27.83 -36.39,57.45 -57.23,88.68l-406.66 615.04c-19.09,29.45 -37.58,49.9 -55.95,61.15 -18.2,11.29 -42.15,16.83 -71.63,16.83l-60.05 0c-31.1,0 -56.37,-8.09 -75.46,-24.8 -19.1,-16.36 -28.77,-41.93 -28.77,-76.66l0 -1227.35z"/>
  <path class="fil0" d="M14925.92 15963.17c59.02,0 116.8,-7.79 173.31,-23.43 56.38,-15.64 103.89,-32.94 142.07,-52.04 15.47,-8.86 26.89,-10.95 33.79,-6.6 6.95,4.35 13.09,10.82 18.2,19.56l52.2 110.03c13.98,22.84 9.59,41.33 -12.95,55.48 -65.97,36.82 -138.28,62.09 -216.31,75.17 -78.19,13.21 -152.9,19.82 -224.06,19.82 -191.16,0 -337.07,-58.64 -437.81,-175.87 -100.7,-117.27 -151.19,-291.35 -151.19,-522.57 0,-111.09 14.36,-211.36 42.99,-300.93 28.64,-89.32 69.46,-165.86 122.6,-229.27 52.84,-63.4 117.57,-112.03 194.06,-145.9 76.37,-33.92 162.4,-50.8 257.94,-50.8 69.46,0 135.77,6.9 199.35,20.84 63.32,13.93 124.64,37.41 183.71,70.31 24.37,13.94 29.61,32.13 15.51,54.76l-54.59 106.87c-5.24,10.4 -10.82,17.77 -17,22.16 -6.01,4.26 -16.96,2.22 -32.6,-6.6 -41.64,-19.09 -86.76,-34.65 -135.3,-46.83 -48.79,-12.19 -100.78,-18.2 -156.56,-18.2 -69.29,0 -128.91,14.23 -178.38,42.87 -49.48,28.64 -90.3,67.03 -122.6,115.74 -31.96,48.41 -55.48,103.85 -70.14,166.23 -15,62.39 -22.33,128.27 -22.33,197.56 0,69.29 6.18,134.23 18.19,194.83 12.36,60.72 33.5,113.94 64.01,159.97 30.25,45.98 70.78,81.9 121.15,107.89 50.33,26.04 114.63,38.95 192.74,38.95z"/>
  <path class="fil0" d="M16520.77 15718.27c0,-67.92 -22.24,-122.51 -66.48,-164.14 -44.31,-41.81 -110.79,-62.52 -199.3,-62.52l-427.41 0 0 463.77 424.68 0c55.61,0 100.87,-7.85 135.6,-23.48 34.73,-15.64 62.09,-35.16 82.24,-58.64 19.69,-23.44 33.2,-49.01 40.14,-76.96 7.08,-27.66 10.53,-53.65 10.53,-78.03zm-693.19 -403.93l440.49 0c17.26,0 37.72,-2.98 61.15,-8.99 23.31,-6.05 44.83,-16.11 63.92,-29.91 19.09,-13.68 35.46,-32.35 49.43,-55.49 13.98,-23.31 20.93,-53.05 20.93,-89.44 0,-46.45 -16.71,-86.17 -49.48,-118.85 -33.06,-32.77 -77.43,-49.18 -133.04,-49.18l-453.4 0 0 351.86zm698.43 83.44c83.31,27.65 142.37,72.48 177.1,134.1 34.73,61.79 52.16,128.1 52.16,199.48 0,60.76 -11.72,115.48 -35.03,164.02 -23.6,48.7 -55.31,90.8 -95.15,126.43 -40.14,35.5 -87.36,62.98 -142.08,82.07 -54.71,19.09 -114.24,28.55 -178.59,28.55l-594.07 0c-36.56,0 -63.92,-9.46 -82.12,-28.55 -18.15,-19.09 -27.36,-44.36 -27.36,-75.59l0 -1159.64c0,-32.86 9.46,-58.55 28.73,-76.79 19.09,-18.33 45.85,-27.45 80.71,-27.45l567.95 0c121.79,0 221.76,27.45 299.78,82.08 78.16,54.76 117.23,141.22 117.23,259.34 0.04,59.11 -15.17,113.82 -45.55,164.19 -30.34,50.33 -70.78,87.62 -121.28,111.99l-2.43 15.77z"/>
  <path class="fil0" d="M17948.75 15332.54c0,-53.82 -5.42,-105.51 -15.77,-154.99 -10.4,-49.6 -29.19,-92.9 -56.25,-130.35 -27.06,-37.33 -63.75,-66.82 -109.73,-88.55 -46.15,-21.74 -104.32,-32.6 -173.95,-32.6 -57.57,0 -108.53,11.33 -152.85,33.92 -44.66,22.46 -82.12,52.58 -112.46,89.78 -30.51,37.46 -54.71,80.46 -72.02,129.17 -17.6,48.53 -27.82,99.8 -31.4,153.62l724.43 0zm-357.02 -596.72c99.03,0 184.6,13.94 256.75,41.68 72.01,27.74 131.08,67.37 177.1,118.63 45.98,51.22 80.28,111.99 102.95,182.35 22.42,70.35 33.84,148.08 33.84,233.3 0,41.64 -5.29,75.47 -15.64,101.51 -10.36,26.12 -24.8,46.58 -43,61.32 -18.19,14.74 -39.08,25.1 -62.51,31.28 -23.48,6.13 -48.28,8.99 -74.28,8.99l-750.59 0c0,81.78 11.55,151.24 34.09,208.51 22.59,57.44 52.8,103.76 90.21,139.51 37.59,35.63 81.18,61.2 130.78,76.84 49.78,15.64 103.3,23.43 160.87,23.43 57.44,0 114.12,-7.37 169.86,-22.24 55.78,-14.75 102.23,-31.58 138.79,-50.8 20.75,-12.06 37.41,-7.84 49.43,13.09l54.72 109.56c12.18,24.2 6.94,41.67 -15.64,52.03 -62.52,38.18 -129.89,63.75 -201.86,76.83 -72.19,13.04 -142.84,19.52 -212.43,19.52 -97.25,0 -184.6,-13.98 -261.9,-41.64 -77.26,-27.82 -142.93,-70.35 -196.75,-127.63 -53.69,-57.44 -95.16,-130.35 -123.75,-218.86 -28.68,-88.72 -43,-194.7 -43,-317.98 0,-114.67 15.22,-216.77 45.56,-306.22 30.38,-89.45 72.61,-164.62 126.43,-225.42 53.82,-60.77 117.1,-107.18 190.31,-139.44 72.79,-32.04 152.6,-48.15 239.66,-48.15z"/>
  <path class="fil0" d="M18962.26 16123.44c-6.9,6.01 -19.09,8.99 -36.35,8.99l-127.79 0c-17.3,0 -29.49,-2.98 -36.39,-8.99 -7.04,-6.01 -10.66,-18.66 -10.66,-37.75l0 -1123.21 -403.63 0c-19.26,0 -31.75,-3.96 -37.89,-11.89 -6.17,-7.8 -9.2,-18.96 -9.2,-33.07l0.04 -102.86c0,-15.9 2.99,-28.21 9.16,-37.04 6.14,-8.65 18.63,-13.21 37.89,-13.21l1047.48 0c20.75,0 33.83,4.56 38.95,13.21 5.28,8.83 7.8,21.14 7.8,37.04l0.04 102.86c0,14.11 -2.6,25.27 -7.84,33.07 -5.12,7.93 -18.2,11.89 -38.95,11.89l-422.13 0 0 1123.21c0,19.09 -3.45,31.74 -10.53,37.75z"/>
  <path class="fil0" d="M20340.81 14730.66c0,-26.12 -9.16,-50.96 -27.36,-74.27 -18.19,-23.52 -49.9,-35.24 -95.15,-35.24l-166.71 0 0 216.22 158.74 0c45.25,0 78.32,-10.4 99.2,-31.24 20.75,-20.83 31.28,-45.98 31.28,-75.47zm-289.22 479.53c0,10.36 -2.26,16.84 -6.48,19.52 -4.34,2.43 -11.71,3.75 -22.41,3.75l-59.83 0c-8.69,0 -14.7,-1.32 -18.2,-3.75 -3.58,-2.68 -5.24,-9.16 -5.24,-19.52l0 -630.76c0,-41.68 19.22,-62.51 57.4,-62.51l231.99 0c65.84,0 119.19,19.51 160.1,58.59 40.74,39.16 61.32,89.06 61.32,149.87 0,36.56 -9.93,70.31 -29.91,101.59 -19.99,31.28 -44.79,56.51 -74.28,75.6 26.04,10.44 44.36,24.8 54.59,43.04 10.52,18.19 18.19,38.6 23.44,61.19l57.31 198.11c3.58,3.45 4.18,9.03 1.49,16.83 -2.73,7.97 -10.82,11.72 -24.8,11.72l-62.56 0c-15.76,0 -24.33,-6.9 -25.99,-20.88l-54.89 -187.58c-8.56,-34.65 -24.2,-58.55 -46.87,-71.64 -22.42,-13.08 -49.47,-19.51 -80.75,-19.51l-135.43 0 0 276.34zm615 -328.46c0,-69.42 -12.19,-134.62 -36.69,-195.38 -24.33,-60.81 -57.57,-113.82 -100.27,-159.04 -42.53,-45.21 -92.9,-80.28 -150.94,-105.55 -58.34,-25.1 -121.32,-37.71 -189.12,-37.71 -69.29,0 -133.63,12.61 -192.74,37.71 -59.06,25.27 -110.32,60.34 -153.75,105.55 -43.46,45.22 -77.3,98.23 -101.63,159.04 -24.37,60.76 -36.52,125.96 -36.52,195.38 0,67.8 12.15,131.55 36.52,191.63 24.33,59.83 58.17,111.99 101.63,156.35 43.43,44.19 94.69,79.39 153.75,105.55 59.11,26 123.45,39.08 192.74,39.08 67.8,0 130.78,-13.08 189.12,-39.08 58.04,-26.16 108.41,-61.36 150.94,-105.55 42.7,-44.36 75.89,-96.52 100.27,-156.35 24.5,-60.08 36.69,-123.83 36.69,-191.63zm106.75 0c0,83.39 -15.22,160.82 -45.56,231.94 -30.38,71.25 -72.19,133.77 -125.11,187.59 -53.06,53.99 -115.14,96.09 -186.26,126.43 -71.25,30.39 -146.85,45.56 -226.84,45.56 -83.43,0 -161.16,-15.17 -233.18,-45.56 -71.97,-30.34 -134.66,-72.44 -187.58,-126.43 -53.05,-53.82 -94.26,-116.34 -123.71,-187.59 -29.66,-71.12 -44.36,-148.55 -44.36,-231.94 0,-83.39 14.7,-161.51 44.36,-234.46 29.45,-72.95 70.66,-136.36 123.71,-190.27 52.92,-53.86 115.61,-96.01 187.58,-126.39 72.02,-30.38 149.75,-45.68 233.18,-45.68 83.31,0 160.7,15.3 231.95,45.68 71.29,30.38 133.08,72.53 184.94,126.39 52.29,53.91 93.03,117.32 122.64,190.27 29.49,72.95 44.19,151.07 44.24,234.46z"/>
  <polygon class="fil1" points="20242.8,7240.11 1773.53,7240.11 3250.98,0 19319.45,757.37 "/>
  <polygon class="fil2" points="5796.83,2637.81 5796.83,4882.09 7065.48,4882.09 7065.48,5325.44 5287.99,5325.44 5287.99,2637.81 "/>
  <polygon class="fil2" points="9375.98,2637.81 9375.98,3077.37 7933.6,3077.37 7933.6,3698.38 8963.78,3698.38 8963.78,4133.93 7933.6,4133.93 7933.6,4886.06 9375.98,4886.06 9375.98,5325.44 7424.79,5325.44 7424.79,2637.81 "/>
  <path class="fil2" d="M10938.49 2637.81c851.75,0 1268.68,289.09 1268.68,1334.06 0,1041.17 -416.93,1353.57 -1268.68,1353.57l-1026.35 0 0 -2687.63 1026.35 0zm-50.67 439.56l-466.02 0 0 1808.69 466.02 0c593.86,0 775.31,-150.51 775.31,-910.23 0,-790.26 -181.45,-898.46 -775.31,-898.46z"/>
  <polygon class="fil2" points="14692.95,2637.81 14692.95,3077.37 13250.57,3077.37 13250.57,3698.38 14280.71,3698.38 14280.71,4133.93 13250.57,4133.93 13250.57,4886.06 14692.95,4886.06 14692.95,5325.44 12741.73,5325.44 12741.73,2637.81 "/>
  <polygon class="fil2" points="15737.83,2637.81 15737.83,4882.09 17006.65,4882.09 17006.65,5325.44 15229.11,5325.44 15229.11,2637.81 "/>
  <polygon class="fil2" points="7553.32,9047.3 1773.53,7239.38 7353.08,7239.38 "/>
  <polygon class="fil3" points="5796.83,2415.71 5796.83,4659.95 7065.48,4659.95 7065.48,5103.43 5287.99,5103.43 5287.99,2415.71 "/>
  <polygon class="fil3" points="9375.98,2415.71 9375.98,2855.27 7933.6,2855.27 7933.6,3476.23 8963.78,3476.23 8963.78,3911.96 7933.6,3911.96 7933.6,4663.91 9375.98,4663.91 9375.98,5103.43 7424.79,5103.43 7424.79,2415.71 "/>
  <path class="fil3" d="M10938.49 2415.71c851.75,0 1268.68,289.05 1268.68,1334.19 0,1041 -416.93,1353.57 -1268.68,1353.57l-1026.35 -0.04 0 -2687.72 1026.35 0zm-50.67 439.56l-466.02 0 0 1808.64 466.02 0c593.86,0 775.31,-150.47 775.31,-910.18 0,-790.14 -181.45,-898.46 -775.31,-898.46z"/>
  <polygon class="fil3" points="14692.95,2415.71 14692.95,2855.27 13250.57,2855.27 13250.57,3476.23 14280.71,3476.23 14280.71,3911.96 13250.57,3911.96 13250.57,4663.91 14692.95,4663.91 14692.95,5103.43 12741.73,5103.43 12741.73,2415.71 "/>
  <polygon class="fil3" points="15737.83,2415.71 15737.83,4659.95 17006.65,4659.95 17006.65,5103.43 15229.11,5103.43 15229.11,2415.71 "/>
 </g>
</svg>
