<svg width="142" height="70" viewBox="0 0 142 70" fill="none" xmlns="http://www.w3.org/2000/svg">
<g clip-path="url(#clip0)">
<path d="M142 56H0L11.3614 0L134.903 5.82517L142 56Z" fill="#DD1F28"/>
<path d="M44.44 69.5553L0 56H43L44.44 69.5553Z" fill="#DC2228"/>
<path d="M30.928 18.5735V35.8294H40.6829V39.239H27.0215V18.5735H30.928Z" fill="white"/>
<path d="M58.4474 18.5735V21.9484H47.3634V26.7218H55.2806V30.0736H47.3634V35.8525H58.4474V39.239H43.4453V18.5735H58.4474Z" fill="white"/>
<path d="M70.0753 21.9599H66.4923V35.8294H70.0753C74.6406 35.8294 76.0391 34.6736 76.0391 28.8369C76.0391 22.7574 74.6406 21.9022 70.0753 21.9022V21.9599ZM70.5029 18.5735C77.0447 18.5735 80.2462 20.7926 80.2462 28.8253C80.2462 36.858 77.01 39.2967 70.5029 39.2967H62.5742V18.5735H70.5029Z" fill="white"/>
<path d="M99.3283 18.5735V21.9484H88.2327V26.7218H96.1614V30.0736H88.2327V35.8525H99.3283V39.239H84.3262V18.5735H99.3283Z" fill="white"/>
<path d="M107.362 18.5735V35.8294H117.116V39.239H103.455V18.5735H107.362Z" fill="white"/>
</g>
<defs>
<clipPath id="clip0">
<rect width="142" height="69.5553" fill="white"/>
</clipPath>
</defs>
</svg>
