<svg width="248" height="20" viewBox="0 0 248 20" fill="none" xmlns="http://www.w3.org/2000/svg">
<g clip-path="url(#clip0)">
<path d="M8.08947 0.579834C9.14394 0.579834 10.1064 0.745894 10.991 1.08493C11.8686 1.41705 12.6258 1.88755 13.2486 2.4826C13.8784 3.07765 14.3597 3.77648 14.7064 4.58603C15.0461 5.39557 15.223 6.28814 15.223 7.25682C15.223 8.2255 15.0532 9.11807 14.7064 9.92761C14.3597 10.7372 13.8784 11.4429 13.2486 12.031C12.6258 12.6261 11.8686 13.0897 10.991 13.4287C10.1135 13.7677 9.14394 13.9338 8.08947 13.9338H5.35776V19.2754H0.0429688V0.579834H8.08947ZM7.62947 9.18726C8.23809 9.18726 8.74055 8.99353 9.14394 8.60606C9.54732 8.21858 9.75256 7.76884 9.75256 7.25682C9.75256 6.7448 9.54732 6.28814 9.14394 5.90758C8.74055 5.52011 8.23101 5.32638 7.62947 5.32638H5.35776V9.18726H7.62947ZM19.0588 0.579834H33.3259V5.18107H24.3736V7.55434H32.5687V12.0034H24.3736V14.6742H33.6302V19.2754H19.0588V0.579834ZM54.6346 0.579834V19.2754H49.7798L42.8019 9.63009V19.2754H37.4872V0.579834H42.3419L49.3198 10.2251V0.579834H54.6346Z" fill="black"/>
<path d="M72.5604 14.6742C72.9072 15.0963 73.3389 15.3107 73.8555 15.3177L74.5066 15.1793V18.7357C73.898 19.0748 73.2115 19.2408 72.4401 19.2408C71.8173 19.2408 71.2229 19.0955 70.6638 18.798C70.1047 18.5005 69.6943 18.203 69.4536 17.9193L69.0573 17.4695C68.9441 17.601 68.7672 17.767 68.5407 17.9608C68.3213 18.1545 67.7976 18.4174 66.9838 18.7496C66.1699 19.0817 65.3065 19.2408 64.3936 19.2408C62.6314 19.2408 61.1948 18.7565 60.0908 17.7878C58.9868 16.826 58.4277 15.6567 58.4277 14.2936C58.4277 13.6847 58.548 13.0897 58.7887 12.5154C59.0293 11.9411 59.3194 11.4637 59.6591 11.0762C59.9988 10.6887 60.3385 10.3566 60.6853 10.0591C61.0321 9.76158 61.3222 9.54709 61.5628 9.4087L61.9308 9.20805L61.7044 8.98664C61.5911 8.88285 61.4142 8.67527 61.1665 8.36391C60.9188 8.05255 60.6924 7.74119 60.4942 7.42983C60.2961 7.11846 60.1191 6.73791 59.9634 6.29508C59.8077 5.85226 59.7299 5.43019 59.7299 5.02888C59.7299 3.79035 60.2253 2.71788 61.2231 1.81147C62.2139 0.925819 63.4453 0.476074 64.9102 0.476074C66.4318 0.476074 67.6915 0.9189 68.7106 1.80455C69.7226 2.6902 70.225 3.72808 70.225 4.91817C70.225 5.66544 69.9773 6.39195 69.4749 7.11154C68.9724 7.83114 68.477 8.35699 67.9887 8.69603L67.2385 9.22881L69.3121 11.6436C69.7438 11.1385 69.9632 10.5089 69.9632 9.7339H74.1173C74.1173 10.5919 73.99 11.436 73.721 12.2663C73.4592 13.0966 73.2044 13.7055 72.9497 14.093L72.5604 14.6742ZM64.7758 15.6913C65.1579 15.6913 65.5188 15.6152 65.8656 15.463C66.2124 15.3107 66.4601 15.1654 66.6229 15.034L66.8493 14.8126L64.3936 11.8927C64.2875 11.9619 64.1671 12.0518 64.0115 12.1694C63.8487 12.2871 63.6364 12.5362 63.3745 12.9167C63.1056 13.2973 62.9711 13.6709 62.9711 14.0445C62.9711 14.5496 63.1268 14.944 63.4453 15.2416C63.7567 15.546 64.2025 15.6913 64.7758 15.6913ZM66.2053 5.30564C66.2053 4.93201 66.0921 4.62757 65.8585 4.3854C65.6321 4.15015 65.3136 4.03252 64.9173 4.03252C64.521 4.03252 64.2025 4.15015 63.969 4.3854C63.7355 4.62757 63.6151 4.93201 63.6151 5.30564C63.6151 5.61701 63.7213 5.92837 63.9407 6.26741C64.1601 6.59953 64.3653 6.86245 64.5776 7.05619L64.9173 7.33296C65.7736 6.65488 66.2053 5.9768 66.2053 5.30564Z" fill="black"/>
<path d="M90.8475 9.29106C91.4562 9.52631 92.0082 9.85151 92.5177 10.2736C92.9211 10.6265 93.3032 11.097 93.6571 11.6851C94.0109 12.2663 94.1879 13.0066 94.1879 13.8992C94.1879 14.6534 94.0393 15.3522 93.7491 15.9888C93.4589 16.6323 93.0343 17.1927 92.4894 17.6771C91.9445 18.1614 91.2722 18.542 90.4866 18.8187C89.7011 19.0955 88.8094 19.2339 87.8186 19.2339H78.4062V0.53833H87.21C88.2008 0.53833 89.0854 0.669794 89.8497 0.925803C90.6211 1.18181 91.2651 1.53469 91.7888 1.97751C92.3125 2.42034 92.7229 2.93928 93.006 3.53432C93.2891 4.12937 93.4306 4.75901 93.4306 5.43017C93.4306 6.12209 93.2962 6.71022 93.0202 7.19456C92.7442 7.6789 92.4469 8.08021 92.1214 8.39849C91.7534 8.75829 91.3288 9.05581 90.8475 9.29106ZM83.714 7.81036H86.1414C86.6651 7.81036 87.1038 7.65122 87.4435 7.33294C87.7903 7.01466 87.9601 6.63411 87.9601 6.17744C87.9601 5.72078 87.7903 5.3333 87.4435 5.02194C87.0968 4.70366 86.6651 4.54452 86.1414 4.54452H83.714V7.81036ZM86.5943 15.2277C87.2029 15.2277 87.7054 15.034 88.1088 14.6465C88.5121 14.259 88.7174 13.8093 88.7174 13.2973C88.7174 12.7852 88.5121 12.3355 88.1088 11.948C87.7054 11.5605 87.1958 11.3668 86.5943 11.3668H83.714V15.2277H86.5943ZM108.497 19.2339C108.214 18.7426 107.896 18.1545 107.542 17.4833C107.188 16.8122 106.841 16.1549 106.495 15.5252C106.113 14.7918 105.716 14.0514 105.313 13.2973H103.338V19.2339H98.0236V0.53833H106.367C107.422 0.53833 108.384 0.70439 109.269 1.02959C110.146 1.35479 110.904 1.81145 111.533 2.39266C112.163 2.97387 112.645 3.65195 112.991 4.4269C113.338 5.20184 113.508 6.03214 113.508 6.91779C113.508 7.86572 113.331 8.66142 112.977 9.3049C112.623 9.94838 112.241 10.4742 111.838 10.8894C111.335 11.3806 110.776 11.7889 110.168 12.1072L114.414 19.227H108.497V19.2339ZM106.07 8.55071C106.679 8.55071 107.16 8.39157 107.514 8.07329C107.868 7.75501 108.045 7.37446 108.045 6.91779C108.045 6.46113 107.868 6.07365 107.514 5.76229C107.16 5.44401 106.679 5.28487 106.07 5.28487H103.338V8.55071H106.07ZM126.119 6.32966L124.449 11.6713H127.789L126.119 6.32966ZM123.232 15.8227L122.17 19.2339H116.558L123.083 0.53833H129.155L135.68 19.2339H130.068L129.007 15.8227H123.232ZM143.295 19.2339H137.98V0.53833H143.295V19.2339ZM164.137 0.53833V19.2339H159.282L152.304 9.58859V19.2339H146.989V0.53833H151.844L158.822 10.1836V0.53833H164.137Z" fill="black"/>
<path d="M173.215 3.16083C173.215 3.51371 173.145 3.84583 173.01 4.15719C172.876 4.46855 172.685 4.7384 172.451 4.96673C172.211 5.19507 171.935 5.38188 171.609 5.51335C171.283 5.64481 170.937 5.714 170.569 5.714C170.201 5.714 169.854 5.64481 169.528 5.51335C169.203 5.38188 168.927 5.19507 168.686 4.96673C168.446 4.7384 168.262 4.46855 168.127 4.15719C167.993 3.84583 167.922 3.51371 167.922 3.16083C167.922 2.80796 167.993 2.47584 168.127 2.16448C168.262 1.85311 168.453 1.58327 168.686 1.35493C168.927 1.1266 169.203 0.939785 169.528 0.808322C169.854 0.676858 170.201 0.607666 170.569 0.607666C170.937 0.607666 171.283 0.676858 171.609 0.808322C171.935 0.939785 172.211 1.1266 172.451 1.35493C172.692 1.58327 172.876 1.85311 173.01 2.16448C173.152 2.48276 173.215 2.81488 173.215 3.16083ZM171.729 2.73185C171.729 2.87023 171.708 2.98094 171.659 3.07089C171.616 3.16083 171.559 3.23003 171.503 3.2923C171.439 3.35457 171.368 3.403 171.283 3.44452L171.984 4.38552C172.126 4.21947 172.246 4.03265 172.324 3.82507C172.409 3.62442 172.451 3.403 172.451 3.16775C172.451 2.91174 172.402 2.66957 172.303 2.44816C172.203 2.22675 172.069 2.03301 171.899 1.86003C171.729 1.69397 171.531 1.56251 171.298 1.46564C171.071 1.36877 170.823 1.32034 170.562 1.32034C170.3 1.32034 170.052 1.36877 169.826 1.46564C169.599 1.56251 169.401 1.69397 169.224 1.86003C169.054 2.02609 168.92 2.21983 168.821 2.44816C168.722 2.66957 168.672 2.91174 168.672 3.16775C168.672 3.42376 168.722 3.66593 168.821 3.88735C168.92 4.10876 169.054 4.3025 169.224 4.47547C169.394 4.64153 169.592 4.773 169.826 4.86987C170.052 4.96673 170.3 5.01517 170.562 5.01517C170.823 5.01517 171.071 4.96673 171.298 4.86987C171.531 4.773 171.729 4.64153 171.899 4.46855H171.121L170.562 3.64517H170.363V4.46855H169.599V1.86695H170.767C170.908 1.86695 171.036 1.88771 171.149 1.93614C171.269 1.98458 171.368 2.04685 171.453 2.12296C171.538 2.19907 171.609 2.29594 171.651 2.39973C171.708 2.50351 171.729 2.61422 171.729 2.73185ZM170.647 2.92558C170.838 2.92558 170.93 2.86331 170.93 2.73185C170.93 2.60038 170.838 2.53811 170.647 2.53811H170.363V2.9325H170.647V2.92558Z" fill="black"/>
<path d="M188.736 4.15014C188.976 4.24701 189.203 4.37847 189.408 4.54453C189.571 4.68983 189.727 4.87665 189.868 5.1119C190.01 5.34715 190.08 5.64468 190.08 5.99755C190.08 6.302 190.024 6.57876 189.904 6.84169C189.783 7.0977 189.613 7.32603 189.394 7.51977C189.175 7.71351 188.906 7.86573 188.587 7.97643C188.269 8.08714 187.915 8.14249 187.512 8.14249H183.732V0.62829H187.271C187.667 0.62829 188.021 0.676724 188.332 0.780512C188.644 0.884299 188.899 1.02268 189.111 1.20258C189.323 1.38248 189.486 1.59005 189.599 1.83222C189.712 2.06747 189.769 2.32348 189.769 2.59333C189.769 2.8701 189.712 3.10535 189.606 3.306C189.493 3.49974 189.38 3.65888 189.245 3.79034C189.097 3.93565 188.927 4.05327 188.736 4.15014ZM185.863 3.54817H186.839C187.052 3.54817 187.228 3.4859 187.363 3.35444C187.497 3.22297 187.568 3.07075 187.568 2.89085C187.568 2.71096 187.497 2.55182 187.363 2.42727C187.221 2.30273 187.052 2.23353 186.839 2.23353H185.863V3.54817ZM187.023 6.53725C187.264 6.53725 187.469 6.46114 187.632 6.302C187.795 6.14978 187.872 5.96296 187.872 5.7623C187.872 5.55473 187.788 5.37483 187.632 5.22261C187.469 5.07039 187.264 4.98736 187.023 4.98736H185.863V6.53725H187.023ZM196.124 8.14249C196.011 7.94184 195.884 7.70659 195.742 7.43674C195.6 7.16689 195.459 6.90396 195.324 6.64796C195.169 6.35043 195.013 6.05291 194.85 5.75538H194.058V8.14249H191.92V0.62829H195.275C195.7 0.62829 196.089 0.690563 196.443 0.822026C196.796 0.95349 197.101 1.13339 197.348 1.36864C197.603 1.60389 197.794 1.87374 197.936 2.1851C198.077 2.49646 198.141 2.82858 198.141 3.18838C198.141 3.56893 198.07 3.88721 197.929 4.15014C197.787 4.40615 197.632 4.62064 197.469 4.7867C197.264 4.98736 197.044 5.1465 196.796 5.27796L198.502 8.14249H196.124ZM195.148 3.85262C195.388 3.85262 195.586 3.79034 195.728 3.65888C195.869 3.53434 195.94 3.37519 195.94 3.1953C195.94 3.0154 195.869 2.85626 195.728 2.73171C195.586 2.60717 195.395 2.53798 195.148 2.53798H194.051V3.85262H195.148ZM203.201 2.95313L202.529 5.09806H203.873L203.201 2.95313ZM202.048 6.7725L201.623 8.14249H199.365L201.991 0.62829H204.433L207.058 8.14249H204.801L204.376 6.7725H202.048ZM215.416 0.62829V8.14249H213.463L210.653 4.26777V8.14249H208.516V0.62829H210.469L213.279 4.50302V0.62829H215.416ZM220.419 6.23281C220.667 6.23281 220.894 6.18437 221.106 6.09442C221.318 6.00447 221.509 5.87301 221.665 5.71387C221.821 5.54781 221.948 5.35407 222.04 5.12574C222.132 4.89741 222.182 4.64832 222.182 4.37847C222.182 4.10862 222.132 3.85954 222.04 3.6312C221.948 3.40287 221.821 3.20914 221.665 3.04999C221.509 2.88393 221.318 2.75939 221.106 2.66944C220.894 2.57949 220.66 2.53106 220.419 2.53106H219.747V6.22589H220.419V6.23281ZM217.617 0.62829H220.426C220.986 0.62829 221.509 0.725158 221.99 0.911976C222.472 1.10571 222.882 1.36864 223.229 1.70076C223.576 2.03288 223.845 2.43419 224.043 2.89085C224.241 3.35444 224.333 3.85262 224.333 4.38539C224.333 4.92509 224.234 5.42326 224.043 5.87993C223.845 6.33659 223.576 6.73099 223.229 7.07002C222.882 7.40214 222.472 7.66507 221.99 7.85881C221.509 8.05254 220.993 8.14249 220.426 8.14249H217.617V0.62829ZM228.36 8.14249H226.223V0.62829H228.36V8.14249ZM237.454 0.62829V8.14249H235.5L232.691 4.26777V8.14249H230.554V0.62829H232.507L235.316 4.50302V0.62829H237.454ZM243.2 4.08787H247.043V8.14249H245.642L245.337 7.42982C245.175 7.58896 244.984 7.72734 244.764 7.84497C244.58 7.95568 244.347 8.05254 244.078 8.13557C243.802 8.2186 243.497 8.26012 243.144 8.26012C242.62 8.26012 242.132 8.16325 241.672 7.96259C241.212 7.76194 240.808 7.49209 240.468 7.14613C240.129 6.80018 239.86 6.39195 239.655 5.91452C239.456 5.44402 239.357 4.932 239.357 4.37847C239.357 3.83186 239.456 3.31984 239.655 2.84242C239.853 2.37192 240.129 1.95677 240.483 1.61081C240.836 1.26485 241.247 0.995005 241.721 0.79435C242.195 0.593694 242.705 0.496826 243.257 0.496826C243.625 0.496826 243.957 0.538341 244.255 0.614452C244.559 0.697482 244.828 0.79435 245.068 0.918895C245.309 1.04344 245.521 1.18182 245.705 1.34788C245.889 1.51394 246.052 1.67308 246.187 1.84606C246.512 2.23353 246.753 2.68328 246.916 3.18146L244.722 3.36136C244.651 3.20913 244.545 3.07075 244.403 2.94621C244.29 2.84242 244.141 2.74555 243.95 2.66252C243.766 2.57257 243.533 2.53106 243.257 2.53106C243.016 2.53106 242.783 2.57949 242.57 2.66944C242.358 2.75939 242.167 2.89085 242.011 3.04999C241.856 3.21605 241.728 3.40979 241.636 3.6312C241.544 3.85954 241.495 4.10862 241.495 4.37847C241.495 4.64832 241.544 4.89741 241.636 5.12574C241.728 5.35407 241.856 5.54781 242.018 5.71387C242.181 5.87993 242.365 6.00447 242.577 6.09442C242.79 6.18437 243.016 6.23281 243.264 6.23281C243.54 6.23281 243.773 6.19821 243.957 6.1221C244.141 6.04599 244.297 5.96296 244.41 5.87993C244.552 5.77614 244.658 5.65852 244.729 5.52013H243.2V4.08787Z" fill="black"/>
<path d="M187.575 14.1621L186.903 16.307H188.248L187.575 14.1621ZM186.415 17.9815L185.99 19.3515H183.732L186.358 11.8373H188.8L191.425 19.3515H189.168L188.743 17.9815H186.415ZM196.181 15.2969H200.024V19.3515H198.622L198.318 18.6388C198.155 18.7979 197.964 18.9363 197.745 19.054C197.561 19.1647 197.327 19.2615 197.058 19.3446C196.782 19.4276 196.478 19.4691 196.124 19.4691C195.6 19.4691 195.112 19.3722 194.652 19.1716C194.192 18.9709 193.789 18.7011 193.449 18.3551C193.109 18.0092 192.84 17.6009 192.635 17.1235C192.437 16.653 192.338 16.141 192.338 15.5875C192.338 15.0408 192.437 14.5288 192.635 14.0514C192.833 13.5809 193.109 13.1658 193.463 12.8198C193.817 12.4738 194.228 12.204 194.702 12.0033C195.176 11.8027 195.685 11.7058 196.237 11.7058C196.605 11.7058 196.938 11.7473 197.235 11.8234C197.54 11.9065 197.809 12.0033 198.049 12.1279C198.29 12.2524 198.502 12.3908 198.686 12.5569C198.87 12.7229 199.033 12.8821 199.167 13.055C199.493 13.4425 199.733 13.8923 199.896 14.3904L197.702 14.5703C197.632 14.4181 197.525 14.2797 197.384 14.1552C197.271 14.0514 197.122 13.9545 196.931 13.8715C196.747 13.7816 196.513 13.74 196.237 13.74C195.997 13.74 195.763 13.7885 195.551 13.8784C195.339 13.9684 195.148 14.0998 194.992 14.259C194.836 14.425 194.709 14.6188 194.617 14.8402C194.525 15.0685 194.475 15.3176 194.475 15.5875C194.475 15.8573 194.525 16.1064 194.617 16.3347C194.709 16.5631 194.836 16.7568 194.999 16.9229C195.162 17.0889 195.346 17.2135 195.558 17.3034C195.77 17.3934 195.997 17.4418 196.244 17.4418C196.52 17.4418 196.754 17.4072 196.938 17.3311C197.122 17.255 197.278 17.1719 197.391 17.0889C197.532 16.9851 197.632 16.8675 197.709 16.7291H196.181V15.2969ZM202.104 11.8373H207.837V13.6847H204.234V14.6395H207.532V16.4316H204.234V17.5041H207.957V19.3515H202.097V11.8373H202.104ZM216.817 11.8373V19.3515H214.864L212.054 15.4768V19.3515H209.917V11.8373H211.87L214.68 15.712V11.8373H216.817ZM222.62 17.4487C222.896 17.4487 223.13 17.4003 223.314 17.2965C223.498 17.1996 223.654 17.0889 223.767 16.9713C223.908 16.826 224.007 16.6668 224.085 16.4939L226.279 16.6738C226.208 17.0128 226.06 17.3518 225.847 17.6909C225.635 18.023 225.366 18.3274 225.041 18.5904C224.722 18.8602 224.354 19.0747 223.944 19.2339C223.533 19.3999 223.094 19.476 222.62 19.476C222.068 19.476 221.552 19.3792 221.085 19.1785C220.61 18.9778 220.2 18.708 219.846 18.362C219.492 18.0161 219.216 17.6078 219.018 17.1304C218.82 16.6599 218.721 16.1479 218.721 15.5944C218.721 15.0478 218.82 14.5357 219.018 14.0583C219.216 13.5878 219.492 13.1727 219.846 12.8267C220.2 12.4808 220.61 12.2109 221.085 12.0103C221.559 11.8096 222.068 11.7127 222.62 11.7127C223.094 11.7127 223.533 11.7958 223.944 11.9549C224.354 12.121 224.722 12.3355 225.041 12.5984C225.359 12.8682 225.628 13.1658 225.847 13.4979C226.06 13.83 226.208 14.169 226.279 14.515L224.085 14.6949C224.014 14.5219 223.908 14.3628 223.767 14.2175C223.654 14.0998 223.505 13.9891 223.314 13.8923C223.13 13.7954 222.896 13.74 222.62 13.74C222.38 13.74 222.146 13.7885 221.934 13.8784C221.722 13.9684 221.53 14.0998 221.375 14.259C221.219 14.425 221.092 14.6188 221 14.8402C220.908 15.0685 220.858 15.3176 220.858 15.5875C220.858 15.8573 220.908 16.1064 221 16.3347C221.092 16.5631 221.219 16.7568 221.375 16.9229C221.53 17.0889 221.722 17.2135 221.934 17.3034C222.146 17.4003 222.373 17.4487 222.62 17.4487ZM229.704 16.6115L227.079 11.8373H229.4L230.78 14.5842L232.146 11.8373H234.467L231.842 16.6115V19.3584H229.704V16.6115Z" fill="black"/>
</g>
<defs>
<clipPath id="clip0">
<rect width="247" height="19" fill="white" transform="translate(0.0429688 0.476074)"/>
</clipPath>
</defs>
</svg>
